<svg id="logo" xmlns="http://www.w3.org/2000/svg" viewBox="0 0 176.81 47.7"><defs><style>.cls-1{fill:#fff;}.cls-2{fill:#ea423f;}.cls-3{fill:#f6af30;}.cls-4{fill:#e8edf1;}.cls-5{fill:#e09f2c;}.cls-6{fill:#dadcde;}.cls-7{fill:#eaa62e;}.cls-8{fill:#fefdfd;}.cls-9{fill:#d03330;}.cls-10{fill:#db5a58;}.cls-11{fill:#eaa731;}.cls-12{fill:#d03532;}.cls-13{fill:#a92a27;}.cls-14{fill:#e8ecee;}</style></defs><g id="Fashion"><path class="cls-1" d="M-214.73,3.06V6.45h-8.73v5.37h6.69v3.33h-6.69V24h-4.2V3.06Z" transform="translate(288.73 23.12)"/><path class="cls-1" d="M-211.84,11.16a7.37,7.37,0,0,1,2.73-3,7.29,7.29,0,0,1,3.86-1,6.75,6.75,0,0,1,3.25.75,6.62,6.62,0,0,1,2.24,1.89V7.38h4.23V24h-4.23V21.57A6.16,6.16,0,0,1-202,23.5a6.71,6.71,0,0,1-3.28.77,7.08,7.08,0,0,1-3.83-1.08,7.54,7.54,0,0,1-2.73-3,9.8,9.8,0,0,1-1-4.52A9.62,9.62,0,0,1-211.84,11.16Zm11.48,1.9A4.23,4.23,0,0,0-202,11.38a4.43,4.43,0,0,0-2.19-.58,4.25,4.25,0,0,0-2.16.57A4.32,4.32,0,0,0-207.94,13a5.19,5.19,0,0,0-.61,2.59,5.37,5.37,0,0,0,.61,2.62A4.44,4.44,0,0,0-206.32,20a4.13,4.13,0,0,0,2.15.6A4.43,4.43,0,0,0-202,20a4.26,4.26,0,0,0,1.62-1.69,5.37,5.37,0,0,0,.6-2.62A5.43,5.43,0,0,0-200.36,13.06Z" transform="translate(288.73 23.12)"/><path class="cls-1" d="M-188.72,23.54a6.58,6.58,0,0,1-2.57-2,5,5,0,0,1-1-2.79h4.23a2.3,2.3,0,0,0,.94,1.59,3.3,3.3,0,0,0,2.06.63,3.17,3.17,0,0,0,1.87-.48,1.46,1.46,0,0,0,.68-1.23,1.31,1.31,0,0,0-.83-1.22,15.52,15.52,0,0,0-2.62-.88,22.34,22.34,0,0,1-3-.93,5.29,5.29,0,0,1-2-1.47,3.94,3.94,0,0,1-.85-2.67,4.3,4.3,0,0,1,.79-2.52,5.34,5.34,0,0,1,2.28-1.8,8.57,8.57,0,0,1,3.5-.66,7.09,7.09,0,0,1,4.74,1.49,5.47,5.47,0,0,1,2,4h-4a2.21,2.21,0,0,0-.83-1.58,3,3,0,0,0-2-.58,3.11,3.11,0,0,0-1.76.42,1.33,1.33,0,0,0-.61,1.17,1.38,1.38,0,0,0,.84,1.28,13.1,13.1,0,0,0,2.61.88,22.15,22.15,0,0,1,3,.93,5.32,5.32,0,0,1,2,1.48,4.11,4.11,0,0,1,.89,2.66,4.41,4.41,0,0,1-.8,2.58,5.16,5.16,0,0,1-2.28,1.78,8.61,8.61,0,0,1-3.46.65A8.92,8.92,0,0,1-188.72,23.54Z" transform="translate(288.73 23.12)"/><path class="cls-1" d="M-162.35,8a5.76,5.76,0,0,1,2.29,2.44,8.32,8.32,0,0,1,.83,3.85V24h-4.2V14.82a4.34,4.34,0,0,0-1-3.05,3.54,3.54,0,0,0-2.7-1.06,3.64,3.64,0,0,0-2.75,1.06,4.3,4.3,0,0,0-1,3.05V24h-4.2V1.8h4.2V9.45a5.58,5.58,0,0,1,2.16-1.7,7.31,7.31,0,0,1,3-.61A6.85,6.85,0,0,1-162.35,8Z" transform="translate(288.73 23.12)"/><path class="cls-1" d="M-155,4.69a2.3,2.3,0,0,1-.73-1.75A2.32,2.32,0,0,1-155,1.19a2.57,2.57,0,0,1,1.85-.71,2.55,2.55,0,0,1,1.84.71,2.33,2.33,0,0,1,.74,1.75,2.31,2.31,0,0,1-.74,1.75,2.51,2.51,0,0,1-1.84.71A2.53,2.53,0,0,1-155,4.69ZM-151,7.38V24h-4.2V7.38Z" transform="translate(288.73 23.12)"/><path class="cls-1" d="M-143.84,23.21a7.69,7.69,0,0,1-3-3,9,9,0,0,1-1.09-4.5,8.84,8.84,0,0,1,1.12-4.5,7.91,7.91,0,0,1,3.08-3,9,9,0,0,1,4.35-1.06A9,9,0,0,1-135,8.17a7.88,7.88,0,0,1,3.07,3,8.84,8.84,0,0,1,1.13,4.5,8.66,8.66,0,0,1-1.16,4.5,8,8,0,0,1-3.12,3,9,9,0,0,1-4.39,1.06A8.75,8.75,0,0,1-143.84,23.21Zm6.46-3.15a4.06,4.06,0,0,0,1.61-1.67,5.61,5.61,0,0,0,.6-2.7A5,5,0,0,0-136.42,12a4.11,4.11,0,0,0-3-1.27,4,4,0,0,0-3,1.27,5.11,5.11,0,0,0-1.21,3.65,5.13,5.13,0,0,0,1.18,3.64,3.88,3.88,0,0,0,3,1.28A4.35,4.35,0,0,0-137.38,20.06Z" transform="translate(288.73 23.12)"/><path class="cls-1" d="M-113.75,9a7.17,7.17,0,0,1,1.83,5.23V24h-4.2V14.82a4.34,4.34,0,0,0-1-3.05,3.54,3.54,0,0,0-2.7-1.06,3.64,3.64,0,0,0-2.75,1.06,4.3,4.3,0,0,0-1,3.05V24h-4.2V7.38h4.2V9.45a5.9,5.9,0,0,1,2.14-1.7,6.8,6.8,0,0,1,2.87-.61A6.41,6.41,0,0,1-113.75,9Z" transform="translate(288.73 23.12)"/><path class="cls-2" d="M-267.9,24.52c-6.57,0-13.15,0-19.71,0-.94,0-1.24-.23-1.08-1.12a4.92,4.92,0,0,0,0-.86c.18-.21.27-.43,0-.65V20.41c.28-.1.21-.34.22-.54q.21-3.88.41-7.76c.36-7.16.73-14.31,1.06-21.46,0-.6.18-.8.8-.79,1.76.05,3.53,0,5.29,0l0,3.87,0,3.49a3.65,3.65,0,0,1-.66.53,1.9,1.9,0,0,0-1.11,2.09c.08,1.58,0,3.17,0,4.75,0,.58.12.87.77.85,1.22,0,2.45,0,3.67,0,.66,0,.78-.28.77-.85a31.19,31.19,0,0,1,0-3.35c.13-1.69,0-3.21-1.77-4l0-3.47.05-3.88,3.45-.06H-274l6.91.06c0,1.07,0,2.15,0,3.22,0,.58.2,1,.81,1s.93-.41.92-1c0-1.07,0-2.15,0-3.22l3.45-.06.88.07.19.63a5.32,5.32,0,0,0,0,3.23,2.05,2.05,0,0,0,.21,1.09,5.2,5.2,0,0,0,0,3.24A20.07,20.07,0,0,1-260.32,2c-1,0-2,0-3,0-3,0-2.94,0-3.06,3-.08,2.22-.28,4.44-.46,6.67C-267.2,15.93-267.56,20.23-267.9,24.52Z" transform="translate(288.73 23.12)"/><path class="cls-3" d="M-253.43,2l6.52.06c0,3,.35,6,.62,9,.21,2.28.26,4.57.48,6.85a35.37,35.37,0,0,0,.42,4.7v1.94H-267.9c.34-4.29.7-8.59,1-12.88.18-2.23.38-4.45.46-6.67.12-3,.08-3,3.06-3,1,0,2,0,3,0h6.89Zm-8.42,8.93c0,.54.05,1.08,0,1.62-.37,4.14,1.64,6.26,6.09,6a4.41,4.41,0,0,0,4.3-4.38c0-2.16,0-4.32,0-6.48,0-.63-.07-1.24-.84-1.25s-.9.63-.9,1.29c0,2.09,0,4.18,0,6.27A2.64,2.64,0,0,1-256,16.72q-.54,0-1.08,0c-2,0-3.05-1-3.06-3s0-3.89,0-5.84c0-.65.09-1.44-.84-1.46s-.89.83-.89,1.51C-261.85,8.89-261.85,9.9-261.85,10.91Z" transform="translate(288.73 23.12)"/><path class="cls-4" d="M-280.9-10.1c.12-2.18-.19-4.37.19-6.55a7.55,7.55,0,0,1,4.56-5.82c.32-.15.85-.09.89-.65h4.33c.06.58.5.4.84.42a16.3,16.3,0,0,0,2,1.33,4.63,4.63,0,0,0,.32.42,7.8,7.8,0,0,1,2.49,6.2c0,1.55,0,3.1,0,4.65,0,1.07,0,2.15,0,3.22,0,.64-.24,1.08-.92,1s-.82-.47-.81-1c0-1.07,0-2.15,0-3.22,0-1.66,0-3.31,0-5a5.54,5.54,0,0,0-.48-2.62c-.68-1.4-1.54-2.67-3.21-3.05a2.26,2.26,0,0,0-2.37-.43.66.66,0,0,0-.69-.21,6,6,0,0,0-5.15,4.51c-.5,2.23-.13,4.51-.22,6.76l-.05,3.88a1,1,0,0,1-1.65,0Z" transform="translate(288.73 23.12)"/><path class="cls-5" d="M-245.39,24.52V22.58c1.2-.92,1.73-2.32,2.55-3.51.08-.11,0-.34,0-.52-.12-1.14-.25-2.27-.36-3.4-.16-1.71-.3-3.42-.47-5.13q-.41-4-.83-8h1.73c.22,2.31.4,4.63.67,6.94.34,2.8.61,5.61.86,8.43a6.63,6.63,0,0,0,2.56,4.73l.24.22a4.11,4.11,0,0,0,0,.86c.22,1.12-.2,1.55-1.31,1.3a14.1,14.1,0,0,0-1.86-3.09c-.21-.35-.39-.35-.61,0a14.93,14.93,0,0,0-1.86,3.09Z" transform="translate(288.73 23.12)"/><path class="cls-6" d="M-268.11-21.37a16.3,16.3,0,0,1-2-1.33c0-.14,0-.28,0-.42h4.33c0,.33.24.38.48.48a7.85,7.85,0,0,1,5.15,7.72v4.76l-.86.07-.88-.07c0-1.66,0-3.32,0-5A6,6,0,0,0-268.11-21.37Z" transform="translate(288.73 23.12)"/><path class="cls-7" d="M-244.1,24.52a14.93,14.93,0,0,1,1.86-3.09c.22-.35.4-.35.61,0a14.1,14.1,0,0,1,1.86,3.09Z" transform="translate(288.73 23.12)"/><path class="cls-8" d="M-270.07-23.12c0,.14,0,.28,0,.42-.34,0-.78.16-.84-.42Z" transform="translate(288.73 23.12)"/><path class="cls-6" d="M-288.68,21.92c.27.22.18.44,0,.65Z" transform="translate(288.73 23.12)"/><path class="cls-3" d="M-279.18-2.75c1.79.82,1.9,2.34,1.77,4a31.19,31.19,0,0,0,0,3.35c0,.57-.11.87-.77.85-1.22,0-2.45,0-3.67,0-.65,0-.78-.27-.77-.85,0-1.58.07-3.17,0-4.75a1.9,1.9,0,0,1,1.11-2.09,3.65,3.65,0,0,0,.66-.53A1.35,1.35,0,0,1-279.18-2.75Z" transform="translate(288.73 23.12)"/><path class="cls-9" d="M-261-10.09l.86-.07,1.73.07L-257.72,2h-2.6a20.07,20.07,0,0,0-.23-3.87c0-1.08,0-2.16,0-3.24a2.05,2.05,0,0,1-.21-1.09c0-1.08,0-2.16,0-3.23Z" transform="translate(288.73 23.12)"/><path class="cls-6" d="M-275.7-10.16c0-1.33.07-2.66,0-4a8.58,8.58,0,0,1,2.62-7,2.26,2.26,0,0,1,2.37.43A6.27,6.27,0,0,0-274-14.67c.05,1.5,0,3,0,4.51Z" transform="translate(288.73 23.12)"/><path class="cls-6" d="M-279.18-2.75a1.35,1.35,0,0,0-1.69,0c0-1.16,0-2.32,0-3.49a1,1,0,0,0,1.65,0Z" transform="translate(288.73 23.12)"/><path class="cls-10" d="M-260.78-9.46c0,1.07,0,2.15,0,3.23A5.32,5.32,0,0,1-260.78-9.46Z" transform="translate(288.73 23.12)"/><path class="cls-10" d="M-260.56-5.14c0,1.08,0,2.16,0,3.24A5.2,5.2,0,0,1-260.56-5.14Z" transform="translate(288.73 23.12)"/><path class="cls-7" d="M-244.53,2q.42,4,.83,8c.17,1.71.31,3.42.47,5.13.11,1.13.24,2.26.36,3.4,0,.18.11.41,0,.52-.82,1.19-1.35,2.59-2.55,3.51a35.37,35.37,0,0,1-.42-4.7c-.22-2.28-.27-4.57-.48-6.85-.27-3-.62-6-.62-9Z" transform="translate(288.73 23.12)"/><path class="cls-11" d="M-238.71,22.14a6.63,6.63,0,0,1-2.56-4.73c-.25-2.82-.52-5.63-.86-8.43-.27-2.31-.45-4.63-.67-6.94,2.69-.15,2.63-.14,2.82,2.56.37,5.24.81,10.47,1.21,15.71C-238.73,20.92-238.73,21.53-238.71,22.14Z" transform="translate(288.73 23.12)"/><path class="cls-12" d="M-253.43,2H-256c0-.43,0-.86,0-1.29q-.31-5.39-.65-10.77c2.55-.13,2.58-.14,2.73,2.35C-253.73-4.5-253.59-1.26-253.43,2Z" transform="translate(288.73 23.12)"/><path class="cls-13" d="M-256.65-10.09q.33,5.39.65,10.77c0,.43,0,.86,0,1.29h-1.72l-.66-12.06Z" transform="translate(288.73 23.12)"/><path class="cls-14" d="M-261.85,10.91c0-1,0-2,0-3,0-.68-.12-1.52.89-1.51s.84.81.84,1.46c0,1.95,0,3.89,0,5.84s1,3,3.06,3q.54,0,1.08,0a2.64,2.64,0,0,0,2.78-2.79c0-2.09,0-4.18,0-6.27,0-.66.05-1.31.9-1.29s.84.62.84,1.25c0,2.16,0,4.32,0,6.48a4.41,4.41,0,0,1-4.3,4.38c-4.45.31-6.46-1.81-6.09-6C-261.8,12-261.85,11.45-261.85,10.91Z" transform="translate(288.73 23.12)"/></g><g id="Best_Electronic_Store" data-name="Best Electronic Store"><path class="cls-1" d="M-238.65-10.61a2.07,2.07,0,0,1,.5,1.37,2.13,2.13,0,0,1-.32,1.14,2.18,2.18,0,0,1-.93.81,3.47,3.47,0,0,1-1.47.29h-2.9v-8.39h2.82a2.87,2.87,0,0,1,1.94.59,1.94,1.94,0,0,1,.66,1.52,1.87,1.87,0,0,1-.42,1.27,2.25,2.25,0,0,1-1.08.68A2,2,0,0,1-238.65-10.61Zm-4.28-1.07h2a1.94,1.94,0,0,0,1.31-.4,1.39,1.39,0,0,0,.46-1.11,1.34,1.34,0,0,0-.46-1.09,2,2,0,0,0-1.35-.4h-1.92Zm3.43,3.54A1.47,1.47,0,0,0-239-9.33a1.48,1.48,0,0,0-.54-1.2A2.13,2.13,0,0,0-241-11h-2v3.27h2A2.14,2.14,0,0,0-239.5-8.14Z" transform="translate(288.73 23.12)"/><path class="cls-1" d="M-230.1-9.95h-5.44a2.78,2.78,0,0,0,.36,1.27,2.17,2.17,0,0,0,.85.8,2.54,2.54,0,0,0,1.16.27A2.27,2.27,0,0,0-231.8-8a1.86,1.86,0,0,0,.74-1.07h.89a2.8,2.8,0,0,1-1,1.57,3.15,3.15,0,0,1-2,.61,3.28,3.28,0,0,1-1.66-.42A2.94,2.94,0,0,1-236-8.49a3.78,3.78,0,0,1-.41-1.79,3.74,3.74,0,0,1,.41-1.78,2.77,2.77,0,0,1,1.14-1.18,3.39,3.39,0,0,1,1.67-.41,3.18,3.18,0,0,1,1.63.41,2.78,2.78,0,0,1,1.08,1.1,3,3,0,0,1,.38,1.53C-230.08-10.32-230.09-10.1-230.1-9.95Zm-1.12-1.93a2,2,0,0,0-.84-.78,2.47,2.47,0,0,0-1.15-.27,2.31,2.31,0,0,0-1.6.6,2.41,2.41,0,0,0-.73,1.69h4.61A2.33,2.33,0,0,0-231.22-11.88Z" transform="translate(288.73 23.12)"/><path class="cls-1" d="M-227.53-7.43a1.92,1.92,0,0,1-.8-1.42h.87a1.24,1.24,0,0,0,.52.9,2.09,2.09,0,0,0,1.24.34,1.62,1.62,0,0,0,1.08-.33,1,1,0,0,0,.39-.8.76.76,0,0,0-.22-.55,1.39,1.39,0,0,0-.55-.34,6.12,6.12,0,0,0-.89-.27,9.24,9.24,0,0,1-1.19-.39,2.07,2.07,0,0,1-.77-.57,1.53,1.53,0,0,1-.32-1,1.53,1.53,0,0,1,.29-.89,2,2,0,0,1,.81-.65,2.92,2.92,0,0,1,1.2-.24,2.58,2.58,0,0,1,1.71.54,1.91,1.91,0,0,1,.69,1.47h-.84a1.23,1.23,0,0,0-.45-.93,1.65,1.65,0,0,0-1.13-.36,1.66,1.66,0,0,0-1,.3.9.9,0,0,0-.4.75.88.88,0,0,0,.24.63,1.58,1.58,0,0,0,.58.38c.23.09.54.19.93.31a7.48,7.48,0,0,1,1.13.37,1.88,1.88,0,0,1,.72.53,1.36,1.36,0,0,1,.31.92,1.6,1.6,0,0,1-.28.94,2,2,0,0,1-.81.66,2.78,2.78,0,0,1-1.19.24A3,3,0,0,1-227.53-7.43Z" transform="translate(288.73 23.12)"/><path class="cls-1" d="M-220.13-12.84v4.06a1.18,1.18,0,0,0,.23.83,1.12,1.12,0,0,0,.8.23h.77V-7h-.9a1.88,1.88,0,0,1-1.32-.41A1.83,1.83,0,0,1-221-8.78v-4.06h-.92v-.71h.92V-15.2h.85v1.65h1.8v.71Z" transform="translate(288.73 23.12)"/><path class="cls-1" d="M-211.62-14.7v3.13h3.18v.69h-3.18V-7.7h3.54V-7h-4.38v-8.4h4.38v.7Z" transform="translate(288.73 23.12)"/><path class="cls-1" d="M-205-15.88V-7h-.84v-8.88Z" transform="translate(288.73 23.12)"/><path class="cls-1" d="M-196.58-9.95H-202a2.56,2.56,0,0,0,.36,1.27,2.11,2.11,0,0,0,.85.8,2.5,2.5,0,0,0,1.15.27,2.3,2.3,0,0,0,1.38-.4,1.84,1.84,0,0,0,.73-1.07h.89a2.78,2.78,0,0,1-1,1.57,3.2,3.2,0,0,1-2,.61,3.24,3.24,0,0,1-1.65-.42,2.94,2.94,0,0,1-1.15-1.17,3.67,3.67,0,0,1-.41-1.79,3.74,3.74,0,0,1,.4-1.78,2.88,2.88,0,0,1,1.14-1.18,3.41,3.41,0,0,1,1.67-.41,3.22,3.22,0,0,1,1.64.41,2.78,2.78,0,0,1,1.08,1.1,3.15,3.15,0,0,1,.38,1.53A5.39,5.39,0,0,1-196.58-9.95Zm-1.12-1.93a1.89,1.89,0,0,0-.83-.78,2.5,2.5,0,0,0-1.15-.27,2.29,2.29,0,0,0-1.6.6,2.41,2.41,0,0,0-.73,1.69h4.61A2.33,2.33,0,0,0-197.7-11.88Z" transform="translate(288.73 23.12)"/><path class="cls-1" d="M-194.39-12.06a2.83,2.83,0,0,1,1.13-1.17,3.18,3.18,0,0,1,1.64-.42,3.21,3.21,0,0,1,2,.6,2.74,2.74,0,0,1,1,1.63h-.9a1.85,1.85,0,0,0-.72-1.11,2.4,2.4,0,0,0-1.39-.4,2.36,2.36,0,0,0-1.19.3,2.08,2.08,0,0,0-.83.9,3,3,0,0,0-.31,1.45,3.13,3.13,0,0,0,.31,1.47,2.08,2.08,0,0,0,.83.9,2.36,2.36,0,0,0,1.19.3,2.4,2.4,0,0,0,1.39-.4,1.86,1.86,0,0,0,.72-1.13h.9a2.68,2.68,0,0,1-1,1.62,3.15,3.15,0,0,1-2,.62,3.18,3.18,0,0,1-1.64-.42,2.9,2.9,0,0,1-1.13-1.17,3.78,3.78,0,0,1-.41-1.79A3.74,3.74,0,0,1-194.39-12.06Z" transform="translate(288.73 23.12)"/><path class="cls-1" d="M-185.37-12.84v4.06a1.18,1.18,0,0,0,.23.83,1.12,1.12,0,0,0,.8.23h.77V-7h-.9a1.88,1.88,0,0,1-1.32-.41,1.83,1.83,0,0,1-.43-1.37v-4.06h-.91v-.71h.91V-15.2h.85v1.65h1.8v.71Z" transform="translate(288.73 23.12)"/><path class="cls-1" d="M-179.9-13.34a2.74,2.74,0,0,1,1.4-.33v.87h-.23a2.13,2.13,0,0,0-1.47.5,2.12,2.12,0,0,0-.55,1.64V-7h-.84v-6.55h.84v1.16A2.12,2.12,0,0,1-179.9-13.34Z" transform="translate(288.73 23.12)"/><path class="cls-1" d="M-175.44-7.32a3,3,0,0,1-1.16-1.17,3.57,3.57,0,0,1-.43-1.79,3.63,3.63,0,0,1,.43-1.78,3,3,0,0,1,1.18-1.17,3.34,3.34,0,0,1,1.67-.42,3.37,3.37,0,0,1,1.67.42,3,3,0,0,1,1.18,1.17,3.63,3.63,0,0,1,.42,1.78,3.53,3.53,0,0,1-.43,1.78,2.94,2.94,0,0,1-1.19,1.18,3.38,3.38,0,0,1-1.68.42A3.3,3.3,0,0,1-175.44-7.32Zm2.86-.61a2.26,2.26,0,0,0,.9-.89,2.84,2.84,0,0,0,.34-1.46,2.83,2.83,0,0,0-.34-1.45,2.16,2.16,0,0,0-.88-.89,2.48,2.48,0,0,0-1.2-.3,2.43,2.43,0,0,0-1.2.3,2.12,2.12,0,0,0-.89.89,2.93,2.93,0,0,0-.33,1.45,3,3,0,0,0,.33,1.46,2.22,2.22,0,0,0,.88.89,2.41,2.41,0,0,0,1.19.29A2.42,2.42,0,0,0-172.58-7.93Z" transform="translate(288.73 23.12)"/><path class="cls-1" d="M-163.35-12.95a2.82,2.82,0,0,1,.75,2.11V-7h-.83v-3.74a2.28,2.28,0,0,0-.54-1.64,1.91,1.91,0,0,0-1.45-.56,2,2,0,0,0-1.52.6,2.51,2.51,0,0,0-.56,1.76V-7h-.84v-6.55h.84v1.11a2.14,2.14,0,0,1,.9-.91,2.67,2.67,0,0,1,1.33-.32A2.63,2.63,0,0,1-163.35-12.95Z" transform="translate(288.73 23.12)"/><path class="cls-1" d="M-160.16-15a.6.6,0,0,1-.18-.44.59.59,0,0,1,.18-.44.6.6,0,0,1,.44-.17.59.59,0,0,1,.43.17.59.59,0,0,1,.18.44.6.6,0,0,1-.18.44.6.6,0,0,1-.43.18A.6.6,0,0,1-160.16-15Zm.86,1.42V-7h-.84v-6.55Z" transform="translate(288.73 23.12)"/><path class="cls-1" d="M-156.77-12.06a2.83,2.83,0,0,1,1.13-1.17,3.18,3.18,0,0,1,1.64-.42,3.21,3.21,0,0,1,2,.6,2.74,2.74,0,0,1,1,1.63h-.9a1.85,1.85,0,0,0-.72-1.11,2.4,2.4,0,0,0-1.39-.4,2.36,2.36,0,0,0-1.19.3,2.08,2.08,0,0,0-.83.9,3,3,0,0,0-.31,1.45A3.13,3.13,0,0,0-156-8.81a2.08,2.08,0,0,0,.83.9,2.36,2.36,0,0,0,1.19.3,2.4,2.4,0,0,0,1.39-.4,1.86,1.86,0,0,0,.72-1.13h.9a2.68,2.68,0,0,1-1,1.62,3.15,3.15,0,0,1-2,.62,3.18,3.18,0,0,1-1.64-.42,2.9,2.9,0,0,1-1.13-1.17,3.78,3.78,0,0,1-.41-1.79A3.74,3.74,0,0,1-156.77-12.06Z" transform="translate(288.73 23.12)"/><path class="cls-1" d="M-143.87-7.2a2.41,2.41,0,0,1-1-.81,2.13,2.13,0,0,1-.38-1.15h.89a1.65,1.65,0,0,0,.54,1.07,1.94,1.94,0,0,0,1.4.47,2,2,0,0,0,1.35-.44,1.42,1.42,0,0,0,.5-1.11,1.28,1.28,0,0,0-.28-.87,1.59,1.59,0,0,0-.68-.49,10.32,10.32,0,0,0-1.13-.36,10.29,10.29,0,0,1-1.33-.44,2.18,2.18,0,0,1-.84-.67,2,2,0,0,1-.35-1.24,2,2,0,0,1,.34-1.16,2.28,2.28,0,0,1,1-.8,3.24,3.24,0,0,1,1.4-.28,2.93,2.93,0,0,1,1.88.57,2.15,2.15,0,0,1,.82,1.47h-.91a1.53,1.53,0,0,0-.57-.92,1.93,1.93,0,0,0-1.29-.4,1.92,1.92,0,0,0-1.26.4,1.32,1.32,0,0,0-.51,1.1,1.3,1.3,0,0,0,.28.85,1.74,1.74,0,0,0,.69.49,11.64,11.64,0,0,0,1.12.36,9,9,0,0,1,1.32.45,2.08,2.08,0,0,1,.85.68,1.9,1.9,0,0,1,.35,1.22A2.15,2.15,0,0,1-140-8.09a2.37,2.37,0,0,1-.92.85,3.07,3.07,0,0,1-1.47.32A3.52,3.52,0,0,1-143.87-7.2Z" transform="translate(288.73 23.12)"/><path class="cls-1" d="M-136.4-12.84v4.06a1.18,1.18,0,0,0,.23.83,1.14,1.14,0,0,0,.81.23h.76V-7h-.9a1.88,1.88,0,0,1-1.32-.41,1.87,1.87,0,0,1-.43-1.37v-4.06h-.91v-.71h.91V-15.2h.85v1.65h1.8v.71Z" transform="translate(288.73 23.12)"/><path class="cls-1" d="M-131.41-7.32a3,3,0,0,1-1.16-1.17,3.57,3.57,0,0,1-.43-1.79,3.53,3.53,0,0,1,.43-1.78,3,3,0,0,1,1.18-1.17,3.31,3.31,0,0,1,1.67-.42,3.37,3.37,0,0,1,1.67.42,3,3,0,0,1,1.18,1.17,3.63,3.63,0,0,1,.42,1.78,3.53,3.53,0,0,1-.43,1.78,2.94,2.94,0,0,1-1.19,1.18,3.38,3.38,0,0,1-1.68.42A3.3,3.3,0,0,1-131.41-7.32Zm2.86-.61a2.26,2.26,0,0,0,.9-.89,3,3,0,0,0,.34-1.46,2.83,2.83,0,0,0-.34-1.45,2.12,2.12,0,0,0-.89-.89,2.43,2.43,0,0,0-1.2-.3,2.48,2.48,0,0,0-1.2.3,2.16,2.16,0,0,0-.88.89,2.93,2.93,0,0,0-.33,1.45,3,3,0,0,0,.33,1.46,2.16,2.16,0,0,0,.88.89,2.41,2.41,0,0,0,1.19.29A2.48,2.48,0,0,0-128.55-7.93Z" transform="translate(288.73 23.12)"/><path class="cls-1" d="M-122.63-13.34a2.76,2.76,0,0,1,1.4-.33v.87h-.23a2.12,2.12,0,0,0-1.46.5,2.08,2.08,0,0,0-.55,1.64V-7h-.84v-6.55h.84v1.16A2,2,0,0,1-122.63-13.34Z" transform="translate(288.73 23.12)"/><path class="cls-1" d="M-113.46-9.95h-5.44a2.56,2.56,0,0,0,.36,1.27,2.17,2.17,0,0,0,.85.8,2.5,2.5,0,0,0,1.15.27,2.28,2.28,0,0,0,1.38-.4,1.86,1.86,0,0,0,.74-1.07h.88a2.78,2.78,0,0,1-1,1.57,3.18,3.18,0,0,1-2,.61,3.27,3.27,0,0,1-1.65-.42,2.94,2.94,0,0,1-1.15-1.17,3.78,3.78,0,0,1-.41-1.79,3.63,3.63,0,0,1,.41-1.78,2.77,2.77,0,0,1,1.14-1.18,3.35,3.35,0,0,1,1.66-.41,3.22,3.22,0,0,1,1.64.41,2.78,2.78,0,0,1,1.08,1.1,3.15,3.15,0,0,1,.38,1.53C-113.44-10.32-113.45-10.1-113.46-9.95Zm-1.13-1.93a1.89,1.89,0,0,0-.83-.78,2.5,2.5,0,0,0-1.15-.27,2.29,2.29,0,0,0-1.6.6,2.41,2.41,0,0,0-.73,1.69h4.61A2.24,2.24,0,0,0-114.59-11.88Z" transform="translate(288.73 23.12)"/></g></svg>